<svg xmlns="http://www.w3.org/2000/svg"  viewBox="0 0 32 32" width="32px" height="32px" baseProfile="basic"><linearGradient id="JHgIVjHssy8Oq3xYEdJKJa" x1="-45.827" x2="-37.376" y1="-43.827" y2="-35.376" gradientTransform="matrix(.742 -.258 -.258 .742 35.09 35.09)" gradientUnits="userSpaceOnUse"><stop offset="0" stop-color="#f0a800"/><stop offset=".298" stop-color="#ffc31e"/><stop offset=".306" stop-color="#ffd86f"/><stop offset=".726" stop-color="#fbbf25"/><stop offset=".736" stop-color="#f0a400"/></linearGradient><polygon fill="url(#JHgIVjHssy8Oq3xYEdJKJa)" points="9,26 5,26 5,22 22,5 26,9"/><linearGradient id="JHgIVjHssy8Oq3xYEdJKJb" x1="2.988" x2="7.904" y1="28.012" y2="23.096" gradientUnits="userSpaceOnUse"><stop offset="0" stop-color="#242321"/><stop offset=".378" stop-color="#696969"/><stop offset=".381" stop-color="#ebbd7a"/></linearGradient><path fill="url(#JHgIVjHssy8Oq3xYEdJKJb)" d="M9,26l-6,2l2-6	c0.482,0.455,1.225,0.443,2.134,0.134c-1.039,1.503,0.481,2.783,1.774,1.774C8.675,24.726,8.739,25.408,9,26z"/><radialGradient id="JHgIVjHssy8Oq3xYEdJKJc" cx="25.05" cy="4.671" r="3.814" gradientUnits="userSpaceOnUse"><stop offset="0" stop-color="#ffb3c8"/><stop offset=".248" stop-color="#f59ab3"/><stop offset=".633" stop-color="#e36b8c"/><stop offset="1" stop-color="#ee88a4"/></radialGradient><path fill="url(#JHgIVjHssy8Oq3xYEdJKJc)" d="M26,9l-4-4l1.275-1.275	c0.953-0.953,2.498-0.953,3.451,0l0.549,0.549c0.953,0.953,0.953,2.498,0,3.451L26,9z"/><linearGradient id="JHgIVjHssy8Oq3xYEdJKJd" x1="-36.827" x2="-28.376" y1="-52.827" y2="-44.376" gradientTransform="matrix(.742 -.258 -.258 .742 35.09 35.09)" gradientUnits="userSpaceOnUse"><stop offset="0" stop-color="#a1a1a1"/><stop offset=".018" stop-color="#999"/><stop offset=".099" stop-color="#7b7b7b"/><stop offset=".145" stop-color="#707070"/><stop offset=".192" stop-color="gray"/><stop offset=".282" stop-color="#a9a9a9"/><stop offset=".322" stop-color="#bdbdbd"/><stop offset=".394" stop-color="#d8d8d8"/><stop offset=".484" stop-color="#fff"/><stop offset=".61" stop-color="#bdbdbd"/><stop offset=".674" stop-color="#a0a0a0"/><stop offset=".762" stop-color="#7d7d7d"/><stop offset=".809" stop-color="#707070"/><stop offset=".883" stop-color="gray"/><stop offset="1" stop-color="#a1a1a1"/></linearGradient><polygon fill="url(#JHgIVjHssy8Oq3xYEdJKJd)" points="24,11 20,7 23,4 27,8"/><linearGradient id="JHgIVjHssy8Oq3xYEdJKJe" x1="-27.723" x2="-19.272" y1="-61.93" y2="-53.48" gradientTransform="matrix(.2924 .1915 .1915 .2924 42.284 27.898)" gradientUnits="userSpaceOnUse"><stop offset="0" stop-opacity=".02"/><stop offset=".523" stop-opacity=".2"/><stop offset="1" stop-opacity=".02"/></linearGradient><polygon fill="url(#JHgIVjHssy8Oq3xYEdJKJe)" points="26.267,8.733 22.267,4.733 22.57,4.43 26.57,8.43"/><linearGradient id="JHgIVjHssy8Oq3xYEdJKJf" x1="-46" x2="-37.549" y1="-43.654" y2="-35.203" gradientTransform="matrix(.2924 .1915 .1915 .2924 42.284 27.898)" gradientUnits="userSpaceOnUse"><stop offset="0" stop-opacity=".02"/><stop offset=".523" stop-opacity=".2"/><stop offset="1" stop-opacity=".02"/></linearGradient><polygon fill="url(#JHgIVjHssy8Oq3xYEdJKJf)" points="24.423,10.577 20.423,6.577 20.726,6.274 24.726,10.274"/><linearGradient id="JHgIVjHssy8Oq3xYEdJKJg" x1="15.495" x2="15.495" y1="3.011" y2="28" gradientUnits="userSpaceOnUse"><stop offset="0" stop-opacity=".02"/><stop offset="1" stop-opacity=".15"/></linearGradient><path fill="url(#JHgIVjHssy8Oq3xYEdJKJg)" d="M27.275,4.275l-0.549-0.549	C26.249,3.249,25.624,3.011,25,3.011s-1.249,0.238-1.725,0.715L5,22l-2,6l6-2L27.275,7.725C28.228,6.772,28.228,5.228,27.275,4.275z M27.098,7.549L8.865,25.781l-5.47,1.823l1.823-5.47L23.451,3.902C23.865,3.488,24.415,3.261,25,3.261s1.135,0.228,1.549,0.641	l0.549,0.549C27.952,5.305,27.952,6.695,27.098,7.549z"/></svg>